<?xml version="1.0" encoding="UTF-8"?>
<svg width="16px" height="16px" viewBox="0 0 16 16" version="1.1" xmlns="http://www.w3.org/2000/svg" xmlns:xlink="http://www.w3.org/1999/xlink">
    <!-- Generator: Sketch 54.1 (76490) - https://sketchapp.com -->
    <title>线下券</title>
    <desc>Created with Sketch.</desc>
    <g id="页面1" stroke="none" stroke-width="1" fill="none" fill-rule="evenodd">
        <g id="线下券" transform="translate(-2.000000, -1.000000)" fill-rule="nonzero">
            <rect id="矩形" fill="#000000" opacity="0" x="0" y="0" width="16" height="16"></rect>
            <path d="M17.7961298,9.24230683 L9.83681631,1.28199339 C9.69781956,1.10749748 9.50082419,1 9.27682944,1 L2.69248377,1 C2.30949273,1 2,1.30949275 2,1.69298377 L2,8.27732944 C2,8.50182417 2.10799747,8.69931955 2.27349359,8.82581658 C2.27699352,8.8293165 10.2428068,16.7971297 10.2428068,16.7971297 C10.5128005,17.0676234 10.9517902,17.0676234 11.2222839,16.7971297 L17.7966298,10.2227838 C18.0666234,9.95179019 18.0666234,9.51280048 17.7961298,9.24280681 L17.7961298,9.24230683 Z M4.77143503,4.46541878 C4.19744848,4.46541878 3.73195939,3.99992969 3.73195939,3.42594314 C3.73245938,2.85145661 4.19744848,2.3864675 4.77143503,2.3864675 C5.34542158,2.3864675 5.81141066,2.85195659 5.81141066,3.42594314 C5.81141066,3.9994297 5.34592156,4.46541878 4.77143503,4.46541878 Z" id="形状" fill="#FFFFFF"></path>
        </g>
    </g>
</svg>