<?xml version="1.0" encoding="UTF-8"?>
<svg width="1024px" height="1024px" viewBox="0 0 1024 1024" version="1.1" xmlns="http://www.w3.org/2000/svg" xmlns:xlink="http://www.w3.org/1999/xlink">
    <!-- Generator: Sketch 54.1 (76490) - https://sketchapp.com -->
    <title>应用中心</title>
    <desc>Created with Sketch.</desc>
    <g id="Page-1" stroke="none" stroke-width="1" fill="none" fill-rule="evenodd">
        <g id="应用中心" fill="#ABB9C9" fill-rule="nonzero">
            <path d="M132,132 L132,392 L392,392 L392,132 L132,132 Z M42,42 L482,42 L482,482 L42,482 L42,42 Z" id="Combined-Shape"></path>
            <path d="M132,632 L132,892 L392,892 L392,632 L132,632 Z M42,542 L482,542 L482,982 L42,982 L42,542 Z" id="Combined-Shape复制-2"></path>
            <path d="M632,132 L632,392 L892,392 L892,132 L632,132 Z M542,42 L982,42 L982,482 L542,482 L542,42 Z" id="Combined-Shape复制"></path>
            <path d="M632,632 L632,892 L892,892 L892,632 L632,632 Z M542,542 L982,542 L982,982 L542,982 L542,542 Z" id="Combined-Shape复制-3"></path>
        </g>
    </g>
</svg>