<?xml version="1.0" encoding="UTF-8"?>
<svg width="16px" height="16px" viewBox="0 0 16 16" version="1.1" xmlns="http://www.w3.org/2000/svg" xmlns:xlink="http://www.w3.org/1999/xlink">
    <!-- Generator: Sketch 49.3 (51167) - http://www.bohemiancoding.com/sketch -->
    <title>Nav/nav-inspection-grey</title>
    <desc>Created with Sketch.</desc>
    <defs></defs>
    <g id="Settings" stroke="none" stroke-width="1" fill="none" fill-rule="evenodd">
        <g id="设置-微信授权-列表-新" transform="translate(-24.000000, -344.000000)">
            <rect id="Rectangle-2" fill="#F0F1F2" x="0" y="0" width="1440" height="1676"></rect>
            <g id="Left-Nav">
                <rect id="Left-Nav-Background" fill="#313942" x="0" y="0" width="152" height="1675"></rect>
                <g id="Nav-Menu" transform="translate(0.000000, 152.000000)">
                    <g id="Nav/nav-inspection-grey" transform="translate(24.000000, 192.000000)">
                        <g>
                            <rect id="Rectangle-path" x="0" y="0" width="16" height="16"></rect>
                            <path d="M7.707,10.293 L6.921,9.50699999 L5.98,4.8 C5.88494628,4.33433375 5.47526862,3.999903 5,4 L0,3.99999998 L0,6 L4.18,6 L4.78,8.99999999 L0,8.99999999 L0,14 L3,14 L3,15 C3,15.5522847 3.44771525,16 4,16 L7,16 C7.55228475,16 8,15.5522847 8,15 L8,11 C7.99994336,10.7348052 7.89454937,10.4804927 7.707,10.293 Z M6,13 L5,13 L5,12 L6,12 L6,13 Z" id="Shape" fill="#A6B5C4" fill-rule="nonzero"></path>
                            <path d="M16,8 L14,8 L14,7 C13.9966939,4.23994685 11.7600532,2.00330612 9,2 L8,2 L8,0 L9,0 C12.8641657,0.00440863597 15.9955914,3.13583434 16,7 L16,8 Z" id="Shape" fill="#A6B5C4" fill-rule="nonzero"></path>
                            <path d="M12,8 L10,8 L10,7 C10,6.44771525 9.55228475,6 9,6 L8,6 L8,4 L9,4 C10.6568542,4 12,5.34314575 12,7 L12,8 Z" id="Shape" fill="#A6B5C4" fill-rule="nonzero"></path>
                        </g>
                    </g>
                    <g id="Nav/nav-inspection-grey" transform="translate(24.000000, 192.000000)">
                        <rect id="Rectangle-path" x="0" y="0" width="16" height="16"></rect>
                        <path d="M7.707,10.293 L6.921,9.50699999 L5.98,4.8 C5.88494628,4.33433375 5.47526862,3.999903 5,4 L0,3.99999998 L0,6 L4.18,6 L4.78,8.99999999 L0,8.99999999 L0,14 L3,14 L3,15 C3,15.5522847 3.44771525,16 4,16 L7,16 C7.55228475,16 8,15.5522847 8,15 L8,11 C7.99994336,10.7348052 7.89454937,10.4804927 7.707,10.293 Z M6,13 L5,13 L5,12 L6,12 L6,13 Z" id="Shape" fill="#A6B5C4" fill-rule="nonzero"></path>
                        <path d="M16,8 L14,8 L14,7 C13.9966939,4.23994685 11.7600532,2.00330612 9,2 L8,2 L8,0 L9,0 C12.8641657,0.00440863597 15.9955914,3.13583434 16,7 L16,8 Z" id="Shape" fill="#A6B5C4" fill-rule="nonzero"></path>
                        <path d="M12,8 L10,8 L10,7 C10,6.44771525 9.55228475,6 9,6 L8,6 L8,4 L9,4 C10.6568542,4 12,5.34314575 12,7 L12,8 Z" id="Shape" fill="#A6B5C4" fill-rule="nonzero"></path>
                    </g>
                </g>
            </g>
        </g>
    </g>
</svg>