<?xml version="1.0" encoding="UTF-8"?>
<svg width="16px" height="16px" viewBox="0 0 16 16" version="1.1" xmlns="http://www.w3.org/2000/svg" xmlns:xlink="http://www.w3.org/1999/xlink">
    <!-- Generator: Sketch 48.1 (47250) - http://www.bohemiancoding.com/sketch -->
    <title>Nav/nav-store-grey</title>
    <desc>Created with Sketch.</desc>
    <defs></defs>
    <g id="Nav/nav-store-grey" stroke="none" stroke-width="1" fill="none" fill-rule="evenodd">
        <g fill="#A6B5C4" fill-rule="nonzero">
            <path d="M14,16 L2,16 C1.56666667,16 1,15.4333333 1,15 L1,11 C1,10.5666667 1.56666667,10 2,10 C2.43333333,10 3,10.5666667 3,11 L3,14 L13,14 L13,11 C13,10.5666667 13.5666667,10 14,10 C14.4333333,10 15,10.5666667 15,11 L15,15 C15,15.4333333 14.4333333,16 14,16 Z" id="Shape_1_copy_13"></path>
            <path d="M15.8666667,4.6969697 L13.6666667,0.333333333 C13.5333333,0.121212121 13.2666667,0 13,0 L3,0 C2.73333333,0 2.46666667,0.121212121 2.33333333,0.333333333 L0.133333333,4.6969697 C0.0333333333,4.81818182 0,4.93939394 0,5.09090909 L0,6.18181818 C0,7.18181818 0.9,8 2,8 C3.53333333,8 4,6.54545455 4,6.54545455 C4.2,7.39393939 5.03333333,8 6,8 C7.53333333,8 8,6.54545455 8,6.54545455 C8.2,7.39393939 9.03333333,8 10,8 C11.5333333,8 12,6.54545455 12,6.54545455 C12.2,7.39393939 13.0333333,8 14,8 C15.1,8 16,7.18181818 16,6.18181818 L16,5.09090909 C16,4.93939394 15.9666667,4.81818182 15.8666667,4.6969697 Z" id="Shape_1_copy_13-2"></path>
        </g>
    </g>
</svg>