<?xml version="1.0" standalone="no"?><!DOCTYPE svg PUBLIC "-//W3C//DTD SVG 1.1//EN" "http://www.w3.org/Graphics/SVG/1.1/DTD/svg11.dtd"><svg class="icon" width="16px" height="16.00px" viewBox="0 0 1024 1024" version="1.1" xmlns="http://www.w3.org/2000/svg"><path fill="#ffffff" d="M557 658.7v300h-90v-300h90z m-423.4 24.2L70 746.5l212.1 212.1 63.6-63.6-212.1-212.1z m756.8 0L678.3 895l63.6 63.6L954 746.5l-63.6-63.6zM512 143.2L374.7 259.5l-43.4 36.8-51.8-23.5-29.1-13.2L262 463.8l0.1 2.5v2.6c0 41.8 16.3 81.1 45.8 110.6s68.8 45.8 110.6 45.8h187.1c41.8 0 81.1-16.3 110.6-45.8C745.7 550 762 510.7 762 468.9v-2.6l0.1-2.5 11.6-204.2-29.1 13.2-51.8 23.5-43.4-36.8L512 143.2m0-117.9l195.5 165.5L872 116.3l-20 352.6c0 136.1-110.3 246.5-246.5 246.5h-187C282.3 715.4 172 605 172 468.9l-20-352.6 164.5 74.5L512 25.3z" /></svg>