<?xml version="1.0" encoding="UTF-8"?>
<svg width="16px" height="16px" viewBox="0 0 16 16" version="1.1" xmlns="http://www.w3.org/2000/svg" xmlns:xlink="http://www.w3.org/1999/xlink">
    <!-- Generator: Sketch 49.3 (51167) - http://www.bohemiancoding.com/sketch -->
    <title>Nav/nav-wash-white</title>
    <desc>Created with Sketch.</desc>
    <defs></defs>
    <g id="快捷洗车" stroke="none" stroke-width="1" fill="none" fill-rule="evenodd">
        <g id="概览" transform="translate(-24.000000, -392.000000)">
            <rect id="Rectangle-2" fill="#F0F1F2" x="0" y="0" width="1440" height="900"></rect>
            <g id="Left-Nav">
                <rect id="Left-Nav-Background" fill="#313942" x="0" y="0" width="152" height="900"></rect>
                <g id="Nav-Menu" transform="translate(0.000000, 152.000000)" fill="#FFFFFF">
                    <rect id="Current-Background" opacity="0.0799999982" x="0" y="232" width="152" height="32"></rect>
                    <g id="Nav/nav-wash-white" transform="translate(24.000000, 240.000000)">
                        <g id="Shape">
                            <path d="M6,3.875 C6,2.529 8,0.333 8,0.333 C8,0.333 10,2.533 10,3.875 C10,4.9795695 9.1045695,5.875 8,5.875 C6.8954305,5.875 6,4.9795695 6,3.875 Z" fill-rule="nonzero"></path>
                            <path d="M15.707,10.286 L14.921,9.5 L13.98,4.8 C13.8849463,4.33433375 13.4752686,3.999903 13,4 L11.776,4 L12.776,9 L3.22,9 L4.22,4 L3,4 C2.52473138,3.999903 2.11505372,4.33433375 2.02,4.8 L1.079,9.5 L0.293,10.286 C0.103726134,10.4752045 -0.0018101026,10.7323815 -2.22041217e-16,11 L-2.22041217e-16,15 C-1.5440733e-16,15.5522847 0.44771525,16 1,16 L4,16 C4.55228475,16 5,15.5522847 5,15 L5,14 L11,14 L11,15 C11,15.5522847 11.4477153,16 12,16 L15,16 C15.5522847,16 16,15.5522847 16,15 L16,11 C16.0018101,10.7323815 15.8962739,10.4752045 15.707,10.286 Z M3,13 L2,13 L2,12 L3,12 L3,13 Z M14,13 L13,13 L13,12 L14,12 L14,13 Z" fill-rule="nonzero"></path>
                        </g>
                    </g>
                    <g id="Nav/nav-wash-white" transform="translate(24.000000, 240.000000)" fill-rule="nonzero">
                        <path d="M6,3.875 C6,2.529 8,0.333 8,0.333 C8,0.333 10,2.533 10,3.875 C10,4.9795695 9.1045695,5.875 8,5.875 C6.8954305,5.875 6,4.9795695 6,3.875 Z" id="Shape"></path>
                        <path d="M15.707,10.286 L14.921,9.5 L13.98,4.8 C13.8849463,4.33433375 13.4752686,3.999903 13,4 L11.776,4 L12.776,9 L3.22,9 L4.22,4 L3,4 C2.52473138,3.999903 2.11505372,4.33433375 2.02,4.8 L1.079,9.5 L0.293,10.286 C0.103726134,10.4752045 -0.0018101026,10.7323815 -2.22041217e-16,11 L-2.22041217e-16,15 C-1.5440733e-16,15.5522847 0.44771525,16 1,16 L4,16 C4.55228475,16 5,15.5522847 5,15 L5,14 L11,14 L11,15 C11,15.5522847 11.4477153,16 12,16 L15,16 C15.5522847,16 16,15.5522847 16,15 L16,11 C16.0018101,10.7323815 15.8962739,10.4752045 15.707,10.286 Z M3,13 L2,13 L2,12 L3,12 L3,13 Z M14,13 L13,13 L13,12 L14,12 L14,13 Z" id="Shape"></path>
                    </g>
                </g>
            </g>
        </g>
    </g>
</svg>