<?xml version="1.0" encoding="UTF-8"?>
<svg width="16px" height="16px" viewBox="0 0 16 16" version="1.1" xmlns="http://www.w3.org/2000/svg" xmlns:xlink="http://www.w3.org/1999/xlink">
    <!-- Generator: Sketch 49.3 (51167) - http://www.bohemiancoding.com/sketch -->
    <title>Nav/nav-wash-grey</title>
    <desc>Created with Sketch.</desc>
    <defs></defs>
    <g id="工作台" stroke="none" stroke-width="1" fill="none" fill-rule="evenodd">
        <g id="预约核销-服务中工单" transform="translate(-24.000000, -392.000000)">
            <rect id="Rectangle-2" fill="#F0F1F2" x="0" y="0" width="1440" height="900"></rect>
            <g id="Left-Nav">
                <rect id="Left-Nav-Background" fill="#313942" x="0" y="0" width="152" height="900"></rect>
                <g id="Nav-Menu" transform="translate(0.000000, 144.000000)" fill="#A6B5C4">
                    <g id="Nav/nav-wash-grey" transform="translate(24.000000, 248.000000)">
                        <g id="Shape">
                            <path d="M6.00002291,3.875 C6.00002291,2.529 8.00002291,0.333 8.00002291,0.333 C8.00002291,0.333 10.0000229,2.533 10.0000229,3.875 C10.0000229,4.9795695 9.10459241,5.875 8.00002291,5.875 C6.89545341,5.875 6.00002291,4.9795695 6.00002291,3.875 Z" fill-rule="nonzero"></path>
                            <path d="M15.7070229,10.286 L14.9210229,9.5 L13.9800229,4.8 C13.8849692,4.33433375 13.4752915,3.999903 13.0000229,4 L11.7760229,4 L12.7760229,9 L3.22002291,9 L4.22002291,4 L3.00002291,4 C2.52475429,3.999903 2.11507662,4.33433375 2.02002291,4.8 L1.07902291,9.5 L0.293022906,10.286 C0.10374904,10.4752045 -0.0017871966,10.7323815 2.29059935e-05,11 L2.29059935e-05,15 C2.29059935e-05,15.5522847 0.447738156,16 1.00002291,16 L4.00002291,16 C4.55230766,16 5.00002291,15.5522847 5.00002291,15 L5.00002291,14 L11.0000229,14 L11.0000229,15 C11.0000229,15.5522847 11.4477382,16 12.0000229,16 L15.0000229,16 C15.5523077,16 16.0000229,15.5522847 16.0000229,15 L16.0000229,11 C16.001833,10.7323815 15.8962968,10.4752045 15.7070229,10.286 Z M3.00002291,13 L2.00002291,13 L2.00002291,12 L3.00002291,12 L3.00002291,13 Z M14.0000229,13 L13.0000229,13 L13.0000229,12 L14.0000229,12 L14.0000229,13 Z" fill-rule="nonzero"></path>
                        </g>
                    </g>
                    <g id="Nav/nav-wash-grey" transform="translate(24.000000, 248.000000)" fill-rule="nonzero">
                        <path d="M6.00002291,3.875 C6.00002291,2.529 8.00002291,0.333 8.00002291,0.333 C8.00002291,0.333 10.0000229,2.533 10.0000229,3.875 C10.0000229,4.9795695 9.10459241,5.875 8.00002291,5.875 C6.89545341,5.875 6.00002291,4.9795695 6.00002291,3.875 Z" id="Shape"></path>
                        <path d="M15.7070229,10.286 L14.9210229,9.5 L13.9800229,4.8 C13.8849692,4.33433375 13.4752915,3.999903 13.0000229,4 L11.7760229,4 L12.7760229,9 L3.22002291,9 L4.22002291,4 L3.00002291,4 C2.52475429,3.999903 2.11507662,4.33433375 2.02002291,4.8 L1.07902291,9.5 L0.293022906,10.286 C0.10374904,10.4752045 -0.0017871966,10.7323815 2.29059935e-05,11 L2.29059935e-05,15 C2.29059935e-05,15.5522847 0.447738156,16 1.00002291,16 L4.00002291,16 C4.55230766,16 5.00002291,15.5522847 5.00002291,15 L5.00002291,14 L11.0000229,14 L11.0000229,15 C11.0000229,15.5522847 11.4477382,16 12.0000229,16 L15.0000229,16 C15.5523077,16 16.0000229,15.5522847 16.0000229,15 L16.0000229,11 C16.001833,10.7323815 15.8962968,10.4752045 15.7070229,10.286 Z M3.00002291,13 L2.00002291,13 L2.00002291,12 L3.00002291,12 L3.00002291,13 Z M14.0000229,13 L13.0000229,13 L13.0000229,12 L14.0000229,12 L14.0000229,13 Z" id="Shape"></path>
                    </g>
                </g>
            </g>
        </g>
    </g>
</svg>