<?xml version="1.0" standalone="no"?><!DOCTYPE svg PUBLIC "-//W3C//DTD SVG 1.1//EN" "http://www.w3.org/Graphics/SVG/1.1/DTD/svg11.dtd"><svg class="icon" width="16px" height="16.00px" viewBox="0 0 1024 1024" version="1.1" xmlns="http://www.w3.org/2000/svg"><path fill="#ffffff" d="M928.2 226.1l-63.6 63.6-141.4 141.5-63.6-63.6 96.4-96.4H371.5c-48.2 0-93.6 18.8-127.7 52.9-34.1 34.1-52.9 79.5-52.9 127.7v115.6h-90V451.7c0-149.4 121.2-270.6 270.6-270.6h384.4l-96.4-96.4 63.6-63.6 141.4 141.4 63.7 63.6z m-116 346.3c0 48.2-18.8 93.6-52.9 127.7-34.1 34.1-79.5 52.9-127.7 52.9H267.9l96.5-96.5-63.6-63.6-141.4 141.3-63.6 63.6 63.6 63.6 141.4 141.4 63.6-63.6-96.2-96.2h363.4c149.4 0 270.6-121.2 270.6-270.6V458h-90v114.4z" /></svg>