<?xml version="1.0" encoding="UTF-8"?>
<svg width="288px" height="23px" viewBox="0 0 288 23" version="1.1" xmlns="http://www.w3.org/2000/svg" xmlns:xlink="http://www.w3.org/1999/xlink">
    <!-- Generator: Sketch 48.2 (47327) - http://www.bohemiancoding.com/sketch -->
    <title>cdai-logo</title>
    <desc>Created with Sketch.</desc>
    <defs></defs>
    <g id="登录#1" stroke="none" stroke-width="1" fill="none" fill-rule="evenodd" transform="translate(-575.000000, -241.000000)">
        <g id="cdai-logo" transform="translate(575.000000, 241.000000)">
            <path d="M19.6396484,15.2177734 C19.6396484,15.9013706 19.4711931,16.6411093 19.1342773,17.4370117 C18.7973616,18.2329141 18.2675817,19.0141563 17.5449219,19.7807617 C16.822262,20.5473671 15.8994197,21.1699195 14.7763672,21.6484375 C13.6533147,22.1269555 12.344734,22.3662109 10.8505859,22.3662109 C9.71776777,22.3662109 8.68750464,22.2587901 7.75976562,22.0439453 C6.83202661,21.8291005 5.98974988,21.4946312 5.23291016,21.0405273 C4.47607043,20.5864235 3.78027661,19.988285 3.14550781,19.2460938 C2.57909873,18.5722623 2.09570513,17.8178753 1.6953125,16.9829102 C1.29491987,16.147945 0.994629907,15.2568407 0.794433594,14.3095703 C0.59423728,13.3623 0.494140625,12.3564506 0.494140625,11.2919922 C0.494140625,9.56346792 0.745602954,8.01563184 1.24853516,6.6484375 C1.75146736,5.28124316 2.471675,4.11182126 3.40917969,3.14013672 C4.34668437,2.16845217 5.4453062,1.42871348 6.70507812,0.920898438 C7.96485005,0.413083398 9.30761006,0.159179688 10.7333984,0.159179688 C12.4716884,0.159179688 14.0195245,0.505855908 15.3769531,1.19921875 C16.7343818,1.89258159 17.7744104,2.74950662 18.4970703,3.77001953 C19.2197302,4.79053245 19.5810547,5.75487827 19.5810547,6.66308594 C19.5810547,7.1611353 19.4052752,7.60058403 19.0537109,7.98144531 C18.7021467,8.36230659 18.2773462,8.55273438 17.7792969,8.55273438 C17.2226535,8.55273438 16.8051772,8.42089976 16.5268555,8.15722656 C16.2485338,7.89355337 15.9384783,7.43945635 15.5966797,6.79492188 C15.0302706,5.73046343 14.3637734,4.93457295 13.597168,4.40722656 C12.8305626,3.87988018 11.8857478,3.61621094 10.7626953,3.61621094 C8.975577,3.61621094 7.55225139,4.29491509 6.49267578,5.65234375 C5.43310017,7.00977241 4.90332031,8.93846406 4.90332031,11.4384766 C4.90332031,13.1084068 5.13769297,14.4975531 5.60644531,15.605957 C6.07519766,16.714361 6.73925352,17.5419895 7.59863281,18.0888672 C8.45801211,18.6357449 9.46386143,18.9091797 10.6162109,18.9091797 C11.8662172,18.9091797 12.9233355,18.5991242 13.7875977,17.9790039 C14.6518598,17.3588836 15.3037087,16.4482482 15.7431641,15.2470703 C15.9287119,14.6806612 16.1582018,14.2192401 16.4316406,13.862793 C16.7050795,13.5063459 17.1445282,13.328125 17.75,13.328125 C18.2675807,13.328125 18.7119122,13.5087873 19.0830078,13.8701172 C19.4541034,14.2314471 19.6396484,14.6806614 19.6396484,15.2177734 Z M42.9306641,2.79589844 L42.9306641,8.94824219 L52.3203125,8.94824219 L52.3203125,2.79589844 C52.3203125,1.91698779 52.5180644,1.2578147 52.9135742,0.818359375 C53.309084,0.378904053 53.8290983,0.159179688 54.4736328,0.159179688 C55.127933,0.159179688 55.6577128,0.376462671 56.0629883,0.811035156 C56.4682637,1.24560764 56.6708984,1.90722212 56.6708984,2.79589844 L56.6708984,19.7148438 C56.6708984,20.6035201 56.4658224,21.2675759 56.0556641,21.7070312 C55.6455058,22.1464866 55.1181673,22.3662109 54.4736328,22.3662109 C53.8193327,22.3662109 53.296877,22.1440452 52.90625,21.699707 C52.515623,21.2553689 52.3203125,20.5937544 52.3203125,19.7148438 L52.3203125,12.4931641 L42.9306641,12.4931641 L42.9306641,19.7148438 C42.9306641,20.6035201 42.725588,21.2675759 42.3154297,21.7070312 C41.9052714,22.1464866 41.3779329,22.3662109 40.7333984,22.3662109 C40.0790983,22.3662109 39.5566426,22.1440452 39.1660156,21.699707 C38.7753887,21.2553689 38.5800781,20.5937544 38.5800781,19.7148438 L38.5800781,2.79589844 C38.5800781,1.91698779 38.7729473,1.2578147 39.1586914,0.818359375 C39.5444355,0.378904053 40.0693326,0.159179688 40.7333984,0.159179688 C41.3876986,0.159179688 41.9174784,0.376462671 42.3227539,0.811035156 C42.7280294,1.24560764 42.9306641,1.90722212 42.9306641,2.79589844 Z M90.4941406,3.87988281 L80.6943359,3.87988281 L80.6943359,9.15332031 L89.7177734,9.15332031 C90.3818393,9.15332031 90.8774398,9.3022446 91.2045898,9.60009766 C91.5317399,9.89795071 91.6953125,10.2910132 91.6953125,10.7792969 C91.6953125,11.2675806 91.5341813,11.6655258 91.2119141,11.9731445 C90.8896468,12.2807633 90.3916049,12.4345703 89.7177734,12.4345703 L80.6943359,12.4345703 L80.6943359,18.5429688 L90.8310547,18.5429688 C91.5146519,18.5429688 92.0297834,18.7016586 92.3764648,19.019043 C92.7231463,19.3364274 92.8964844,19.7587864 92.8964844,20.2861328 C92.8964844,20.7939479 92.7231463,21.2065414 92.3764648,21.5239258 C92.0297834,21.8413102 91.5146519,22 90.8310547,22 L79.0097656,22 C78.0624953,22 77.3813497,21.7900412 76.9663086,21.3701172 C76.5512675,20.9501932 76.34375,20.2714891 76.34375,19.3339844 L76.34375,3.19140625 C76.34375,2.56640312 76.4365225,2.05615432 76.6220703,1.66064453 C76.8076181,1.26513474 77.0981426,0.977051685 77.4936523,0.796386719 C77.8891621,0.615721753 78.3945282,0.525390625 79.0097656,0.525390625 L90.4941406,0.525390625 C91.1875035,0.525390625 91.702635,0.679197681 92.0395508,0.986816406 C92.3764665,1.29443513 92.5449219,1.69726313 92.5449219,2.1953125 C92.5449219,2.70312754 92.3764665,3.11083831 92.0395508,3.41845703 C91.702635,3.72607576 91.1875035,3.87988281 90.4941406,3.87988281 Z M114.048828,0.525390625 L119.717773,0.525390625 C121.19239,0.525390625 122.457026,0.662108008 123.511719,0.935546875 C124.566412,1.20898574 125.523433,1.72167593 126.382812,2.47363281 C128.619152,4.38770488 129.737305,7.29783203 129.737305,11.2041016 C129.737305,12.4931705 129.625001,13.6699166 129.400391,14.734375 C129.17578,15.7988334 128.829104,16.7582965 128.360352,17.612793 C127.891599,18.4672894 127.291019,19.2314419 126.558594,19.9052734 C125.982419,20.4228542 125.352542,20.8378891 124.668945,21.1503906 C123.985348,21.4628922 123.250492,21.6826166 122.464355,21.8095703 C121.678219,21.9365241 120.791997,22 119.805664,22 L114.136719,22 C113.345699,22 112.750002,21.8803723 112.349609,21.6411133 C111.949217,21.4018543 111.687989,21.0649436 111.565918,20.6303711 C111.443847,20.1957986 111.382812,19.6318394 111.382812,18.9384766 L111.382812,3.19140625 C111.382812,2.25390156 111.592771,1.57519741 112.012695,1.15527344 C112.432619,0.735349463 113.111323,0.525390625 114.048828,0.525390625 Z M115.733398,3.96777344 L115.733398,18.5429688 L119.029297,18.5429688 C119.751957,18.5429688 120.318357,18.5234377 120.728516,18.484375 C121.138674,18.4453123 121.563474,18.347657 122.00293,18.1914062 C122.442385,18.0351555 122.823241,17.8154311 123.145508,17.5322266 C124.600593,16.3017517 125.328125,14.1826322 125.328125,11.1748047 C125.328125,9.05565347 125.008304,7.46875527 124.368652,6.4140625 C123.729001,5.35936973 122.940434,4.68798972 122.00293,4.39990234 C121.065425,4.11181497 119.932624,3.96777344 118.604492,3.96777344 L115.733398,3.96777344 Z M148.736328,19.7148438 L148.736328,2.79589844 C148.736328,1.91698779 148.936521,1.2578147 149.336914,0.818359375 C149.737307,0.378904053 150.25488,0.159179688 150.889648,0.159179688 C151.543949,0.159179688 152.073728,0.376462671 152.479004,0.811035156 C152.884279,1.24560764 153.086914,1.90722212 153.086914,2.79589844 L153.086914,19.7148438 C153.086914,20.6035201 152.884279,21.2675759 152.479004,21.7070312 C152.073728,22.1464866 151.543949,22.3662109 150.889648,22.3662109 C150.264645,22.3662109 149.749514,22.1440452 149.344238,21.699707 C148.938963,21.2553689 148.736328,20.5937544 148.736328,19.7148438 Z M186.69043,19.5683594 L185.665039,16.8730469 L176.93457,16.8730469 L175.90918,19.6269531 C175.508787,20.7011772 175.166994,21.4262677 174.883789,21.8022461 C174.600585,22.1782245 174.136722,22.3662109 173.492188,22.3662109 C172.94531,22.3662109 172.461916,22.1660176 172.041992,21.765625 C171.622068,21.3652324 171.412109,20.9111354 171.412109,20.4033203 C171.412109,20.1103501 171.460937,19.8076188 171.558594,19.4951172 C171.65625,19.1826156 171.817382,18.7480497 172.041992,18.1914062 L177.535156,4.24609375 C177.691407,3.84570112 177.879393,3.3647489 178.099121,2.80322266 C178.318849,2.24169641 178.553221,1.77539248 178.802246,1.40429688 C179.051271,1.03320127 179.378416,0.732911304 179.783691,0.503417969 C180.188967,0.273924634 180.68945,0.159179688 181.285156,0.159179688 C181.890628,0.159179688 182.395994,0.273924634 182.80127,0.503417969 C183.206545,0.732911304 183.53369,1.02831851 183.782715,1.38964844 C184.03174,1.75097837 184.241698,2.13915808 184.412598,2.55419922 C184.583497,2.96924036 184.80078,3.52343403 185.064453,4.21679688 L190.674805,18.0742188 C191.11426,19.1289115 191.333984,19.8955054 191.333984,20.3740234 C191.333984,20.8720728 191.126467,21.3286112 190.711426,21.7436523 C190.296385,22.1586935 189.795901,22.3662109 189.209961,22.3662109 C188.868162,22.3662109 188.575197,22.3051764 188.331055,22.1831055 C188.086913,22.0610345 187.881837,21.8950206 187.71582,21.6850586 C187.549804,21.4750966 187.371583,21.1528342 187.181152,20.7182617 C186.990722,20.2836892 186.827149,19.9003923 186.69043,19.5683594 Z M178.077148,13.6064453 L184.493164,13.6064453 L181.255859,4.74414062 L178.077148,13.6064453 Z M215.196289,2.76660156 L223.560547,15.4228516 L223.560547,2.64941406 C223.560547,1.81933179 223.738768,1.19677942 224.095215,0.781738281 C224.451662,0.366697144 224.932614,0.159179688 225.538086,0.159179688 C226.163089,0.159179688 226.656248,0.366697144 227.017578,0.781738281 C227.378908,1.19677942 227.55957,1.81933179 227.55957,2.64941406 L227.55957,19.5390625 C227.55957,21.4238375 226.778328,22.3662109 225.21582,22.3662109 C224.825193,22.3662109 224.473634,22.3100592 224.161133,22.1977539 C223.848631,22.0854487 223.555665,21.9072278 223.282227,21.6630859 C223.008788,21.4189441 222.754884,21.1333024 222.520508,20.8061523 C222.286132,20.4790023 222.051759,20.144533 221.817383,19.8027344 L213.658203,7.29296875 L213.658203,19.8759766 C213.658203,20.6962932 213.467775,21.3164042 213.086914,21.7363281 C212.706053,22.1562521 212.217776,22.3662109 211.62207,22.3662109 C211.006833,22.3662109 210.513674,22.1538107 210.142578,21.7290039 C209.771483,21.3041971 209.585937,20.6865275 209.585937,19.8759766 L209.585937,3.30859375 C209.585937,2.60546523 209.664062,2.05371294 209.820312,1.65332031 C210.00586,1.21386499 210.313474,0.85498186 210.743164,0.576660156 C211.172854,0.298338452 211.636716,0.159179688 212.134766,0.159179688 C212.525393,0.159179688 212.859862,0.222655615 213.138184,0.349609375 C213.416505,0.476563135 213.660643,0.647459863 213.870605,0.862304688 C214.080567,1.07714951 214.295409,1.35546704 214.515137,1.69726563 C214.734864,2.03906421 214.961913,2.39550596 215.196289,2.76660156 Z" id="CHEDIAN" fill="#121212"></path>
            <path d="M260.083984,19.5683594 L259.058594,16.8730469 L250.328125,16.8730469 L249.302734,19.6269531 C248.902342,20.7011772 248.560548,21.4262677 248.277344,21.8022461 C247.994139,22.1782245 247.530277,22.3662109 246.885742,22.3662109 C246.338864,22.3662109 245.855471,22.1660176 245.435547,21.765625 C245.015623,21.3652324 244.805664,20.9111354 244.805664,20.4033203 C244.805664,20.1103501 244.854492,19.8076188 244.952148,19.4951172 C245.049805,19.1826156 245.210936,18.7480497 245.435547,18.1914062 L250.928711,4.24609375 C251.084962,3.84570112 251.272948,3.3647489 251.492676,2.80322266 C251.712403,2.24169641 251.946776,1.77539248 252.195801,1.40429688 C252.444825,1.03320127 252.771971,0.732911304 253.177246,0.503417969 C253.582522,0.273924634 254.083005,0.159179688 254.678711,0.159179688 C255.284183,0.159179688 255.789549,0.273924634 256.194824,0.503417969 C256.6001,0.732911304 256.927245,1.02831851 257.17627,1.38964844 C257.425294,1.75097837 257.635253,2.13915808 257.806152,2.55419922 C257.977052,2.96924036 258.194335,3.52343403 258.458008,4.21679688 L264.068359,18.0742188 C264.507815,19.1289115 264.727539,19.8955054 264.727539,20.3740234 C264.727539,20.8720728 264.520022,21.3286112 264.10498,21.7436523 C263.689939,22.1586935 263.189456,22.3662109 262.603516,22.3662109 C262.261717,22.3662109 261.968751,22.3051764 261.724609,22.1831055 C261.480468,22.0610345 261.275391,21.8950206 261.109375,21.6850586 C260.943359,21.4750966 260.765138,21.1528342 260.574707,20.7182617 C260.384276,20.2836892 260.220704,19.9003923 260.083984,19.5683594 Z M251.470703,13.6064453 L257.886719,13.6064453 L254.649414,4.74414062 L251.470703,13.6064453 Z M283.09668,19.7148438 L283.09668,2.79589844 C283.09668,1.91698779 283.296873,1.2578147 283.697266,0.818359375 C284.097658,0.378904053 284.615231,0.159179688 285.25,0.159179688 C285.9043,0.159179688 286.43408,0.376462671 286.839355,0.811035156 C287.244631,1.24560764 287.447266,1.90722212 287.447266,2.79589844 L287.447266,19.7148438 C287.447266,20.6035201 287.244631,21.2675759 286.839355,21.7070312 C286.43408,22.1464866 285.9043,22.3662109 285.25,22.3662109 C284.624997,22.3662109 284.109865,22.1440452 283.70459,21.699707 C283.299314,21.2553689 283.09668,20.5937544 283.09668,19.7148438 Z" id="AI" fill="#FFC723"></path>
        </g>
    </g>
</svg>