<?xml version="1.0" standalone="no"?><!DOCTYPE svg PUBLIC "-//W3C//DTD SVG 1.1//EN" "http://www.w3.org/Graphics/SVG/1.1/DTD/svg11.dtd"><svg t="1543825049662" class="icon" style="" viewBox="0 0 1280 1024" version="1.1" xmlns="http://www.w3.org/2000/svg" p-id="1798" xmlns:xlink="http://www.w3.org/1999/xlink" width="18" height="17"><defs><style type="text/css"></style></defs><path d="M457.508 373.484c0-86.133 63.633-171.914 159.961-171.914 103.711 0 161.367 83.672 161.367 169.805l0 100.547-324.492 1.055 3.164-99.492zM883.602 371.375c0-155.391-115.313-281.25-266.133-281.25s-264.375 126.914-264.375 282.305l0 100.547-69.609-1.055 0 399.375c0 34.805 27.07 62.578 60.82 62.578l546.328 0c33.75 0 60.82-27.773 60.82-62.578l0-399.375-67.852 0 0-100.547zM523.953 702.547c0-52.734 41.836-95.273 93.516-95.273s93.516 42.539 93.516 95.273-41.836 95.273-93.516 95.273-93.516-42.539-93.516-95.273z" p-id="1799"></path></svg>