<?xml version="1.0" encoding="UTF-8"?>
<svg width="120px" height="117px" viewBox="0 0 120 117" version="1.1" xmlns="http://www.w3.org/2000/svg" xmlns:xlink="http://www.w3.org/1999/xlink">
    <!-- Generator: Sketch 54.1 (76490) - https://sketchapp.com -->
    <title>完成检测</title>
    <desc>Created with Sketch.</desc>
    <g id="页面1" stroke="none" stroke-width="1" fill="none" fill-rule="evenodd">
        <g id="生意管理-确认收到物料" transform="translate(-128.000000, -252.000000)">
            <g id="完成检测" transform="translate(128.000000, 252.000000)">
                <g id="Group-3">
                    <g id="空" transform="translate(9.000000, 6.434568)">
                        <path d="M80.8908098,97.8726017 L21.1091902,97.8726017 C18.4979902,97.8726017 16.2689171,96.226746 15.3985171,93.9373186 C8.7856,94.6441925 4.8051122,95.5409728 4.8051122,96.522156 C4.8051122,98.7588316 25.3338146,100.573493 50.6603317,100.573493 C75.9868488,100.573493 96.5155512,98.7588316 96.5155512,96.522156 C96.5155512,95.5726239 92.7898146,94.6969443 86.5802537,94.0006208 C85.6886244,96.2689474 83.4807805,97.8726017 80.8908098,97.8726017 L80.8908098,97.8726017 Z" id="Shape" fill="#E9E6F0" fill-rule="nonzero"></path>
                        <path d="M96.5261659,64.216964 C97.8636098,63.2357808 97.8636098,61.1573606 97.8636098,59.3849006 C97.8636098,56.9794193 97.8636098,53.983118 94.4987707,53.983118 C94.3395512,53.983118 94.1803317,53.9936684 94.0317268,54.0042188 L90.051239,37.7355688 L91.7601951,32.3654373 C91.7601951,30.877837 90.5395122,29.664546 89.0428488,29.664546 L87.004839,29.664546 L87.004839,23.9779038 L73.0253659,10.0936344 L21.1091902,10.0936344 C17.7337366,10.0936344 14.995161,12.8156264 14.995161,16.1706398 L14.995161,29.6750963 L12.9571512,29.6750963 C11.4604878,29.6750963 10.2398049,30.8883874 10.2398049,32.3759876 L11.9381463,37.7777702 L7.9470439,54.099172 C7.80905366,54.0886216 7.67106341,54.0780712 7.53307317,54.0780712 L7.52245854,54.0780712 C4.22130732,54.0780712 4.22130732,57.0216207 4.22130732,59.3849006 C4.22130732,61.1046088 4.23192195,63.1197269 5.49506341,64.1009101 L0.0497560976,86.3938136 C0.0497560976,87.8814139 1.27043902,89.0947049 2.76710244,89.0947049 L14.995161,89.0947049 L14.995161,91.7955962 C14.995161,92.5446716 15.1437659,93.2620958 15.3985171,93.9373186 C16.2689171,96.2372964 18.4979902,97.8726017 21.1091902,97.8726017 L80.8908098,97.8726017 C83.4807805,97.8726017 85.6886244,96.2689474 86.5802537,94.0006208 C86.8456195,93.3148476 87.004839,92.5657723 87.004839,91.7955962 L87.004839,89.0947049 L99.2328976,89.0947049 C100.729561,89.0947049 101.950244,87.8814139 101.950244,86.3938136 L96.5261659,64.216964 Z M10.3459512,62.1807451 C9.5923122,62.9298205 8.59453659,63.3412844 7.52245854,63.3412844 C5.94087805,63.3412844 5.62243902,62.560558 5.57998049,59.9229688 L5.57998049,59.3849006 C5.57998049,56.3252972 5.83473171,55.4285169 7.52245854,55.4285169 L7.62860488,55.4285169 C9.77276098,55.4812687 11.513561,57.2220775 11.513561,59.3743503 C11.5029463,60.4399363 11.0995902,61.4316698 10.3459512,62.1807451 Z M80.8908098,96.522156 L21.1091902,96.522156 C19.2091707,96.522156 17.5639024,95.4038182 16.7996488,93.7896136 C16.5130537,93.177693 16.3538341,92.5130205 16.3538341,91.7955962 L16.3538341,16.1706398 C16.3538341,13.5647017 18.4873756,11.4440801 21.1091902,11.4440801 L72.4627902,11.4440801 L72.7387707,11.7183893 L72.7387707,10.7688572 L86.3255024,24.2733137 L85.3701854,24.2733137 L85.6461659,24.547623 L85.6461659,91.7955962 C85.6461659,92.5341212 85.4657171,93.2304447 85.1685073,93.8529158 C84.393639,95.4354693 82.7696,96.522156 80.8908098,96.522156 L80.8908098,96.522156 Z M96.5049366,59.9335192 L96.5049366,59.9968213 C96.5049366,60.1550767 96.5049366,60.3027817 96.494322,60.4504867 L96.494322,60.4715874 C96.494322,60.6298427 96.4837073,60.7775477 96.4730927,60.9147023 L96.4730927,60.9252527 C96.3669463,62.708263 95.9635902,63.4256872 94.4987707,63.4256872 C92.2484683,63.4256872 90.4227512,61.6110259 90.4227512,59.3743503 C90.4227512,57.1904265 92.1741659,55.4074162 94.3501659,55.3335637 C94.403239,55.3335637 94.4456976,55.3230133 94.4987707,55.3230133 C96.3351024,55.3230133 96.5049366,56.4308008 96.5049366,59.3743503 L96.5049366,59.9335192 L96.5049366,59.9335192 Z" id="Shape" fill="#5E7BFF" fill-rule="nonzero" opacity="0.705022321"></path>
                        <path d="M79.5321366,24.2733137 C75.7851707,24.2733137 72.7387707,21.2453614 72.7387707,17.5210855 L72.7387707,11.7183893 L72.4627902,11.4440801 L21.1091902,11.4440801 C18.4873756,11.4440801 16.3538341,13.5647017 16.3538341,16.1706398 L16.3538341,91.7955962 C16.3538341,92.5130205 16.5130537,93.1882433 16.7996488,93.7896136 C17.5532878,95.4038182 19.1985561,96.522156 21.1091902,96.522156 L80.8908098,96.522156 C82.7696,96.522156 84.393639,95.4354693 85.1685073,93.8529158 C85.4763317,93.2304447 85.6461659,92.5341212 85.6461659,91.7955962 L85.6461659,24.547623 L85.3701854,24.2733137 L79.5321366,24.2733137 L79.5321366,24.2733137 Z M7.61799024,55.4390673 L7.52245854,55.4390673 L7.5118439,55.4390673 C5.82411707,55.4390673 5.56936585,56.3252972 5.56936585,59.395451 L5.56936585,59.9335192 C5.56936585,60.2183788 5.57998049,60.4821377 5.59059512,60.7247959 L5.59059512,60.7669974 C5.60120976,61.0096556 5.62243902,61.2206627 5.64366829,61.4211195 L5.64366829,61.4633209 C5.66489756,61.6637777 5.69674146,61.8431337 5.72858537,62.0013891 C5.72858537,62.0119394 5.72858537,62.0224898 5.7392,62.0330402 C5.78165854,62.1912955 5.82411707,62.3390005 5.87719024,62.4761551 C6.15317073,63.1197269 6.63082927,63.3518347 7.50122927,63.3518347 C8.57330732,63.3518347 9.57108293,62.9403708 10.324722,62.1912955 C11.078361,61.4422202 11.4923317,60.4504867 11.4817171,59.395451 C11.5029463,57.2326279 9.77276098,55.4812687 7.61799024,55.4390673 L7.61799024,55.4390673 Z M94.4987707,55.3335637 C94.4456976,55.3335637 94.403239,55.344114 94.3501659,55.344114 C92.1741659,55.4179665 90.4227512,57.2009768 90.4227512,59.3849006 C90.4227512,61.6215762 92.2484683,63.4362376 94.4987707,63.4362376 C95.3585561,63.4362376 95.8468293,63.183029 96.1334244,62.6133098 L96.1334244,62.6238601 C96.144039,62.6133098 96.144039,62.5922091 96.1546537,62.5711083 C96.1864976,62.5183566 96.2077268,62.4445041 96.2289561,62.3812019 C96.2501854,62.3178998 96.2714146,62.2545976 96.2926439,62.1807451 C96.3138732,62.117443 96.3244878,62.0435905 96.3457171,61.969738 C96.3669463,61.8853352 96.377561,61.790382 96.3881756,61.6954287 C96.3987902,61.6215762 96.4094049,61.5582741 96.4200195,61.4844216 C96.4412488,61.3156159 96.4518634,61.1257095 96.4730927,60.9252527 L96.4730927,60.9147023 C96.4837073,60.7775477 96.4837073,60.6298427 96.494322,60.4715874 L96.494322,60.4504867 C96.494322,60.3027817 96.5049366,60.1550767 96.5049366,59.9968213 L96.5049366,59.9335192 L96.5049366,59.3849006 C96.5049366,56.4519015 96.3351024,55.3335637 94.4987707,55.3335637 L94.4987707,55.3335637 Z" id="Shape" fill="#FFFFFF" fill-rule="nonzero"></path>
                        <circle id="Oval-2" fill="#8DA2FF" fill-rule="nonzero" cx="68" cy="2.56543246" r="2"></circle>
                        <circle id="Oval-2-Copy" fill="#8DA2FF" fill-rule="nonzero" cx="78" cy="2.56543246" r="2"></circle>
                        <circle id="Oval-2-Copy-2" fill="#8DA2FF" fill-rule="nonzero" cx="88" cy="2.56543246" r="2"></circle>
                        <path d="M72.5975388,10.4991973 L72.5975388,16.9993089 C72.5975388,18.7817557 73.2146577,20.5880167 74.3678305,21.9198784 C75.7251412,23.4875099 77.7867808,24.4336449 79.8975431,24.4336449 L86.5856444,24.4336449 L72.5975388,10.4991973 Z" id="Shape" fill="#8A9FFD" fill-rule="nonzero"></path>
                        <path d="M42.3882273,54.130113 L65.3882273,54.130113 C66.4927968,54.130113 67.3882273,55.0255435 67.3882273,56.130113 L67.3882273,57.130113 C67.3882273,58.2346825 66.4927968,59.130113 65.3882273,59.130113 L39.3882273,59.130113 C38.2836578,59.130113 37.3882273,58.2346825 37.3882273,57.130113 L37.3882273,56.4536597 L37.3882273,44.7772065 C37.3882273,43.672637 38.2836578,42.7772065 39.3882273,42.7772065 L40.3882273,42.7772065 C41.4927968,42.7772065 42.3882273,43.672637 42.3882273,44.7772065 L42.3882273,54.130113 Z" id="合并形状" fill="#8196F3" transform="translate(52.388227, 50.953660) rotate(-45.000000) translate(-52.388227, -50.953660) "></path>
                    </g>
                </g>
            </g>
        </g>
    </g>
</svg>