<?xml version="1.0" encoding="UTF-8"?>
<svg width="120px" height="61px" viewBox="0 0 120 61" version="1.1" xmlns="http://www.w3.org/2000/svg" xmlns:xlink="http://www.w3.org/1999/xlink">
    <!-- Generator: Sketch 54.1 (76490) - https://sketchapp.com -->
    <title>形状结合</title>
    <desc>Created with Sketch.</desc>
    <g id="页面" stroke="none" stroke-width="1" fill="none" fill-rule="evenodd">
        <g id="编组-30" fill="#F9CC48">
            <g id="矩形">
                <path d="M81.5730337,44.7333333 L81.5730337,25.0669164 C81.5730337,23.949936 80.6675422,23.0444444 79.5505618,23.0444444 L55.2808989,23.0444444 L55.2808989,2.69662921 C55.2808989,2.55180693 55.2923152,2.40965106 55.3142969,2.27101246 L87.6380154,23.7907057 L119.95098,2.18215582 C119.983152,2.34869483 120,2.52069445 120,2.69662921 L120,42.0367041 C120,43.5260113 118.792678,44.7333333 117.303371,44.7333333 L81.5730337,44.7333333 Z M118.156244,0.137652273 L87.6467203,20.5401922 L57.0437071,0.166068022 C57.3346735,0.0586593182 57.6492505,-3.83785596e-16 57.9775281,-4.4408921e-16 L117.303371,0 C117.601428,-5.47523077e-17 117.888192,0.0483565364 118.156244,0.137652273 Z M77.2763193,25.987834 L53.308699,41.9838029 L29.2947626,25.964381 C29.6154214,25.8298748 29.9675709,25.7555556 30.3370787,25.7555556 L76.1797753,25.7555556 C76.5702302,25.7555556 76.9413032,25.83854 77.2763193,25.987834 Z M78.7330224,27.5823024 C78.8259775,27.8552195 78.8764045,28.1478132 78.8764045,28.4521848 L78.8764045,58.3033708 C78.8764045,59.792678 77.6690825,61 76.1797753,61 L30.3370787,61 C28.8477715,61 27.6404494,59.792678 27.6404494,58.3033708 L27.6404494,28.4521848 C27.6404494,28.1302037 27.6968801,27.8214028 27.8003909,27.5351325 L53.3079804,44.5509533 L78.7330224,27.5823024 Z M8.08988764,12.8777778 L51.2359551,12.8777778 L51.2359551,14.9111111 L8.08988764,14.9111111 L8.08988764,12.8777778 Z M8.76404494,25.7555556 L23.5955056,25.7555556 L23.5955056,27.7888889 L8.76404494,27.7888889 L8.76404494,25.7555556 Z M0,38.6333333 L23.5955056,38.6333333 L23.5955056,40.6666667 L0,40.6666667 L0,38.6333333 Z" id="形状结合"></path>
            </g>
        </g>
    </g>
</svg>