<?xml version="1.0" standalone="no"?><!DOCTYPE svg PUBLIC "-//W3C//DTD SVG 1.1//EN" "http://www.w3.org/Graphics/SVG/1.1/DTD/svg11.dtd"><svg t="1547782564576" class="icon" style="" viewBox="0 0 1024 1024" version="1.1" xmlns="http://www.w3.org/2000/svg" p-id="8576" xmlns:xlink="http://www.w3.org/1999/xlink" width="16" height="16"><defs><style type="text/css"></style></defs><path d="M902 796.9v-320c0-200.2-150.8-365.1-345-387.4V40h-90v49.4c-194.2 22.3-345 187.3-345 387.4v320H64v90h896v-90h-58z m-690 0v-320c0-40.5 7.9-79.8 23.5-116.7 15.1-35.7 36.7-67.8 64.3-95.4 27.6-27.6 59.7-49.2 95.4-64.3 36.9-15.6 76.2-23.5 116.7-23.5s79.8 7.9 116.7 23.5c35.7 15.1 67.8 36.7 95.4 64.3 27.6 27.6 49.2 59.7 64.3 95.4 15.6 36.9 23.5 76.2 23.5 116.7v320H212z m227 118.9h150v90H439v-90z" p-id="8577" fill="#F7D117"></path></svg>